<?xml version="1.0" encoding="UTF-8"?>
<svg xmlns="http://www.w3.org/2000/svg" version="1.1" viewBox="0 0 512 512">
  <defs>
    <style>
      .cls-1 {
        fill: #29333f;
      }

      .cls-2 {
        fill: #293340;
      }

      .cls-3 {
        fill: #c4e4f8;
      }

      .cls-4 {
        fill: #2b333f;
      }

      .cls-5 {
        fill: #fcc212;
      }
    </style>
  </defs>
  <!-- Generator: Adobe Illustrator 28.6.0, SVG Export Plug-In . SVG Version: 1.2.0 Build 709)  -->
  <g>
    <g id="Layer_1">
      <g>
        <path class="cls-1" d="M127.5,76.86c3.42,1.77,4.82,4.45,4.73,8.42-.24,9.66-.07,19.34-.14,29.01-.03,4.17-2.02,6.59-5.36,6.81-3.38.23-5.97-1.72-6.02-5.1-.16-11.03-.09-22.06-.12-33.09,0-3.13,2.35-4.49,4.46-6.05h2.46Z"/>
        <path class="cls-1" d="M299.44,435.13c-44.62,0-89.24-.03-133.86.01-23.25.02-43.98-7.08-61.58-22.32-18.49-16.02-29.29-36.3-31.49-60.78-2.73-30.39,7.89-55.74,29.75-76.66,3.22-3.08,3.2-2.91-1.13-4.66-28.03-11.3-44.26-31.86-47.45-61.98-3.95-37.29,22.01-71.69,59.49-78.42,25.13-4.51,47.21,2.7,65.28,20.93,3.04,3.06,4.91,3.48,8.74,1.15,18.65-11.33,39.04-17.37,60.87-17.36,39.24.02,71.59,15.28,96.81,45.37,2.12,2.53,3.74,3.22,7.12,2.26,55.81-15.89,113.45,20.6,122.59,77.52,1.56,9.73,1.78,19.54.19,29.3-.43,2.66.43,4.07,2.61,5.66,25.58,18.55,37.05,43.82,32.22,74.9-4.65,29.87-22.52,50.04-51.02,60.47-7.46,2.73-15.24,3.99-23.22,3.98-45.31,0-90.61,0-135.92,0v.61Z"/>
        <path class="cls-4" d="M186.95,146.66c-1.77-.14-3.55-1.14-4.62-3.31-1.17-2.38-.66-4.58,1-6.4,2.66-2.9,5.5-5.64,8.29-8.43,4.71-4.71,9.39-9.45,14.18-14.07,3.12-3.01,6.52-3.21,9-.8,2.42,2.36,2.25,6.03-.69,9.02-7.25,7.36-14.61,14.6-21.89,21.92-1.32,1.33-2.86,2.02-5.27,2.06Z"/>
        <path class="cls-4" d="M64.87,257.66c2.4-.06,4.13,1,5.33,3.08,1.36,2.37.79,4.73-.83,6.39-7.88,8.09-15.87,16.08-24,23.91-2.09,2.01-4.94,1.59-7.12-.21-2.45-2.02-2.67-5.09-.87-7.26,7.63-9.17,16.07-17.57,25.22-25.25.7-.58,1.45-.67,2.28-.67Z"/>
        <path class="cls-2" d="M23.45,196.31c5.17,0,10.33-.05,15.5.01,3.81.05,6.56,2.48,6.61,5.7.06,3.29-2.61,5.86-6.42,5.88-10.6.05-21.21.04-31.81-.04-3.83-.03-5.94-2.15-6.01-5.63-.07-3.54,2.25-5.83,6.22-5.89,5.3-.08,10.6-.02,15.91-.03Z"/>
        <path class="cls-4" d="M37.39,117.92c.22-1.94-.69-4.07,1.96-5.27,2.65-1.2,4.89-.6,6.7,1.16,7.79,7.58,15.52,15.22,23.1,23,2.33,2.39,2.51,5.38.13,8.04-2.09,2.34-5.75,2.47-8.36-.05-7.63-7.36-15.08-14.9-22.64-22.33-1.42-1.4-.59-3.08-.88-4.56Z"/>
        <path class="cls-3" d="M299.01,423.6c-44.63,0-89.25.07-133.88-.02-41.11-.09-73.68-27.72-80.6-68.16-7.26-42.41,23.74-85.4,66.12-91.07,35.25-4.72,62.58,8.37,82.05,38.01,2.44,3.72,5.43,4.77,8.52,2.87,3.02-1.86,3.64-5.21,1.33-8.91-15.4-24.65-37.34-39.44-66.25-43.65-11.33-1.65-22.56-1.14-33.68,1.55-2.77.67-3.82.1-3.62-3.03,1.74-26.55,11.47-49.74,29.61-69.15,17.9-19.16,39.97-31.02,66.04-34.45,31.85-4.19,60.53,4.02,85.5,24.24,22.52,18.24,35.08,42.26,39.61,70.64.71,4.42.77,8.95,1,13.44.24,4.72,2.31,7.31,5.92,7.17,3.44-.14,5.68-3.18,5.57-7.63-.5-20.66-5.48-40.14-15.8-58.08-1.94-3.37-.86-3.76,2.14-4.51,42.66-10.73,86.72,13.58,101.21,55.94,15.36,44.89-9.02,92.94-55.12,108.63-1.03.35-2.13.56-3.1,1.03-2.93,1.41-4.4,3.68-3.37,6.95,1.01,3.21,3.41,4.54,6.66,3.99,4.06-.7,7.84-2.36,11.57-3.99,25.8-11.26,43.8-30.02,53.5-56.47,1.37-3.74,2.48-3.44,5.04-1.23,21.49,18.55,29.41,41.84,21.4,68.91-7.65,25.88-26.08,41.32-52.9,45.55-14.04,2.22-28.34.69-42.51.77-33.98.2-67.96.06-101.94.06,0,.2,0,.39,0,.59Z"/>
        <path class="cls-5" d="M124.78,140.71c18.71.34,33.34,6.55,45.59,18.6,2.29,2.25,1.95,3.41-.3,5.38-27.52,24.13-41.77,54.51-42.73,91.11-.11,4.12-5.41,7.63-10.87,6.83-12.96-1.9-24.21-7.5-33.33-16.83-17.5-17.9-22.67-39.34-15.01-62.89,7.31-22.48,23.6-36.08,46.8-41.09,3.71-.8,7.57-.87,9.84-1.12Z"/>
      </g>
    </g>
  </g>
</svg>